<svg id="SvgjsSvg1000" xmlns="http://www.w3.org/2000/svg" version="1.1" xmlns:xlink="http://www.w3.org/1999/xlink" xmlns:svgjs="http://svgjs.com/svgjs" width="113" height="89" viewBox="0 0 113 89"><path id="SvgjsPath1007" d="M842.976 2970.28C842.895 2969.21 842.013 2968.4100000000003 841.005 2968.4900000000002C839.998 2968.5800000000004 839.246 2969.5200000000004 839.327 2970.59L840.178 2981.9C840.254 2982.92 841.056 2983.69 842 2983.69C842.049 2983.69 842.099 2983.69 842.148 2983.68C843.1560000000001 2983.6 843.907 2982.66 843.827 2981.5899999999997ZM840.593 2964.99C840.6419999999999 2964.99 840.6909999999999 2964.99 840.741 2964.9799999999996C841.749 2964.8999999999996 842.5 2963.9599999999996 842.42 2962.8899999999994L842.2099999999999 2960.0899999999992C842.1289999999999 2959.019999999999 841.2459999999999 2958.2199999999993 840.2389999999999 2958.309999999999C839.2309999999999 2958.389999999999 838.4799999999999 2959.329999999999 838.56 2960.399999999999L838.771 2963.1999999999994C838.847 2964.2099999999996 839.6479999999999 2964.9899999999993 840.593 2964.9899999999993ZM906.17 3022.65L892.38 3022.65L892.38 2983.08C892.38 2982.0099999999998 891.561 2981.14 890.55 2981.14L884.5699999999999 2981.14L884.5699999999999 2976.49C887.9279999999999 2975.6099999999997 890.4279999999999 2972.39 890.4279999999999 2968.5499999999997C890.4279999999999 2964.7899999999995 885.3529999999998 2954.9999999999995 884.3359999999999 2953.0699999999997C884.012 2952.4599999999996 883.401 2952.08 882.7399999999999 2952.08C882.0779999999999 2952.08 881.4679999999998 2952.46 881.1439999999999 2953.0699999999997C880.1259999999999 2954.9999999999995 875.0519999999999 2964.7899999999995 875.0519999999999 2968.5499999999997C875.0519999999999 2972.39 877.5509999999999 2975.6099999999997 880.9089999999999 2976.49L880.9089999999999 2981.14L874.9299999999998 2981.14C873.9189999999999 2981.14 873.0989999999998 2982.0099999999998 873.0989999999998 2983.08L873.0989999999998 3022.65L868.9499999999998 3022.65L868.9499999999998 3001.76C868.9499999999998 3000.69 868.1309999999999 2999.82 867.1199999999998 2999.82L863.0929999999997 2999.82L863.0929999999997 2995.09C865.3599999999998 2994.27 866.9979999999997 2991.9900000000002 866.9979999999997 2989.31C866.9979999999997 2986.75 863.8539999999997 2980.04 862.8909999999997 2978.04C862.5769999999998 2977.39 861.9489999999997 2976.98 861.2619999999997 2976.98C860.5759999999997 2976.98 859.9469999999997 2977.39 859.6339999999997 2978.04C858.6699999999996 2980.04 855.5269999999997 2986.75 855.5269999999997 2989.31C855.5269999999997 2991.99 857.1649999999997 2994.27 859.4319999999997 2995.09L859.4319999999997 2999.82L855.4049999999996 2999.82C854.3939999999997 2999.82 853.5739999999996 3000.69 853.5739999999996 3001.76L853.5739999999996 3022.65L831.8529999999996 3022.65L831.8529999999996 3005.7000000000003C837.2109999999996 3005.2200000000003 842.2649999999996 3002.61 845.9359999999996 2998.38C850.0239999999995 2993.67 852.0929999999996 2987.31 851.6119999999996 2980.92L849.4199999999996 2951.79C849.3429999999996 2950.7799999999997 848.5489999999996 2950 847.5949999999996 2950L812.4499999999996 2950C811.4959999999996 2950 810.7019999999995 2950.78 810.6259999999996 2951.79L808.4339999999996 2980.92C807.9529999999996 2987.31 810.0219999999996 2993.67 814.1089999999996 2998.38C817.7809999999996 3002.61 822.8339999999996 3005.2200000000003 828.1919999999996 3005.7000000000003L828.1919999999996 3022.65L796.8299999999996 3022.65C795.8199999999996 3022.65 794.9999999999995 3023.52 794.9999999999995 3024.6C794.9999999999995 3025.67 795.8199999999996 3026.5499999999997 796.8299999999996 3026.5499999999997L816.3729999999996 3026.5499999999997L821.2249999999996 3034.64C820.3029999999995 3034.94 819.3229999999995 3035.1099999999997 818.3079999999995 3035.1099999999997C817.2969999999996 3035.1099999999997 816.4769999999995 3035.9799999999996 816.4769999999995 3037.0499999999997C816.4769999999995 3038.1299999999997 817.2969999999996 3038.9999999999995 818.3079999999995 3038.9999999999995L890.5499999999995 3038.9999999999995C891.5609999999995 3038.9999999999995 892.3799999999995 3038.1299999999997 892.3799999999995 3037.0499999999997L892.3799999999995 3026.5499999999997L906.1699999999995 3026.5499999999997C907.1799999999995 3026.5499999999997 907.9999999999995 3025.6699999999996 907.9999999999995 3024.6C907.9999999999995 3023.52 907.1799999999995 3022.65 906.1699999999995 3022.65ZM812.083 2981.23L814.14 2953.89L845.905 2953.89L847.962 2981.23C848.12 2983.33 847.958 2985.39 847.503 2987.36L812.542 2987.36C812.087 2985.3900000000003 811.9250000000001 2983.33 812.0830000000001 2981.23ZM888.719 3022.65L876.7600000000001 3022.65L876.7600000000001 2985.03L888.719 2985.03ZM874.93 3035.11L841.7379999999999 3035.11C836.9129999999999 3035.11 832.887 3031.4100000000003 832.026 3026.55L882.281 3026.55L878.323 3033.13C877.579 3034.37 876.311 3035.11 874.93 3035.11ZM816.799 2995.74C815.612 2994.37 814.641 2992.8599999999997 813.887 2991.2599999999998L846.1579999999999 2991.2599999999998C845.4039999999999 2992.8599999999997 844.4329999999999 2994.37 843.247 2995.74C839.8 2999.7099999999996 835.1039999999999 3001.89 830.0229999999999 3001.89C824.9419999999999 3001.89 820.2449999999999 2999.71 816.7989999999999 2995.74ZM857.235 3003.71L865.289 3003.71L865.289 3022.65L857.235 3022.65ZM878.713 2968.55C878.713 2966.9700000000003 880.742 2962.2200000000003 882.745 2958.11C885.506 2963.7400000000002 886.767 2967.52 886.767 2968.55C886.767 2970.9100000000003 884.96 2972.8300000000004 882.74 2972.8300000000004C880.519 2972.8300000000004 878.713 2970.9100000000003 878.713 2968.55ZM888.719 3035.11L881.48 3035.11L886.626 3026.55L888.7189999999999 3026.55ZM824.468 3032.81L820.7139999999999 3026.5499999999997L828.02 3026.5499999999997C827.574 3029.06 826.281 3031.2699999999995 824.468 3032.81ZM859.188 2989.31C859.192 2988.5499999999997 860.108 2986.07 861.262 2983.39C862.4169999999999 2986.0699999999997 863.333 2988.5499999999997 863.337 2989.31C863.337 2990.5299999999997 862.406 2991.52 861.262 2991.52C860.1179999999999 2991.52 859.188 2990.53 859.188 2989.31ZM827.555 3035.11C828.521 3034.15 829.3539999999999 3033.04 830.0229999999999 3031.81C830.6919999999999 3033.04 831.5239999999999 3034.15 832.4899999999999 3035.11Z " fill="#cd9665" fill-opacity="1" transform="matrix(1,0,0,1,-795,-2950)"></path></svg>