<svg id="SvgjsSvg1008" xmlns="http://www.w3.org/2000/svg" version="1.1" xmlns:xlink="http://www.w3.org/1999/xlink" xmlns:svgjs="http://svgjs.com/svgjs" width="121" height="84" viewBox="0 0 121 84"><defs id="SvgjsDefs1009"></defs><path id="SvgjsPath1010" d="M1197.26 2978.62C1190.53 2973.18 1181.62 2970.18 1172.17 2970.18C1166.46 2970.18 1160.94 2971.2799999999997 1155.98 2973.35C1153.5 2968.37 1149.3700000000001 2963.97 1144.1100000000001 2960.77C1137.92 2956.99 1130.5600000000002 2955 1122.8300000000002 2955C1113.38 2955 1104.4700000000003 2958 1097.7400000000002 2963.45C1090.8100000000002 2969.0499999999997 1087.0000000000002 2976.56 1087.0000000000002 2984.6099999999997C1087.0000000000002 2991.8499999999995 1090.1400000000003 2998.74 1095.8700000000001 3004.14L1095.97 3021.7799999999997C1095.98 3022.7 1096.42 3023.5899999999997 1097.2 3024.0099999999998C1098.1200000000001 3024.5099999999998 1099 3024.39 1099.64 3024.04L1117 3013.82C1118.93 3014.0800000000004 1120.88 3014.21 1122.83 3014.21C1128.47 3014.21 1134.01 3013.12 1139 3011.04C1140.82 3014.72 1143.54 3018.08 1147.08 3020.94C1153.81 3026.39 1162.72 3029.39 1172.1699999999998 3029.39C1174.1299999999999 3029.39 1176.1 3029.2599999999998 1178.0299999999997 3029L1195.4099999999999 3038.65C1196.3899999999999 3039.1800000000003 1197.1299999999999 3039.05 1197.83 3038.58C1198.56 3038.09 1199.02 3037.27 1199.03 3036.36L1199.1299999999999 3019.31C1204.86 3013.92 1207.9999999999998 3007.0299999999997 1207.9999999999998 2999.7799999999997C1207.9999999999998 2991.74 1204.1899999999998 2984.2299999999996 1197.2599999999998 2978.62ZM1155.65 2979.18C1155.65 2979.1699999999996 1155.66 2979.1699999999996 1155.66 2979.1699999999996C1155.76 2979.1299999999997 1155.8500000000001 2979.0799999999995 1155.94 2979.0299999999997C1160.66 2976.72 1166.22 2975.3799999999997 1172.17 2975.3799999999997C1188.99 2975.3799999999997 1203.0600000000002 2986.3299999999995 1203.0600000000002 2999.7799999999997C1203.0600000000002 3005.81 1200.2300000000002 3011.6099999999997 1195.0900000000001 3016.1099999999997C1194.5500000000002 3016.5799999999995 1194.2300000000002 3017.2599999999998 1194.2 3017.99C1194.19 3018.04 1194.19 3018.0899999999997 1194.19 3018.14L1194.1100000000001 3032.0499999999997L1180.0300000000002 3024.22C1179.5200000000002 3023.81 1178.8600000000001 3023.6099999999997 1178.1700000000003 3023.72C1176.2000000000003 3024.0299999999997 1174.1800000000003 3024.18 1172.1700000000003 3024.18C1158.2200000000003 3024.18 1146.4000000000003 3016.8399999999997 1142.5800000000004 3006.79C1142.5600000000004 3006.75 1142.5400000000004 3006.7 1142.5300000000004 3006.65C1141.7200000000005 3004.4700000000003 1141.2800000000004 3002.17 1141.2800000000004 2999.78C1141.2800000000004 2991.13 1147.0200000000004 2983.51 1155.6500000000003 2979.1800000000003ZM1122.83 3009C1120.82 3009 1118.8 3008.85 1116.83 3008.54C1116.12 3008.43 1115.4399999999998 3008.65 1114.9199999999998 3009.08L1100.8899999999999 3017.34L1100.81 3002.9700000000003C1100.81 3002.92 1100.81 3002.8700000000003 1100.8 3002.82C1100.77 3002.0800000000004 1100.45 3001.4 1099.9099999999999 3000.9300000000003C1094.7699999999998 2996.4300000000003 1091.9399999999998 2990.63 1091.9399999999998 2984.61C1091.9399999999998 2971.15 1105.7999999999997 2960.21 1122.83 2960.21C1135.4499999999998 2960.21 1146.86 2966.42 1151.51 2975.57C1149.95 2976.48 1148.47 2977.5 1147.08 2978.6200000000003C1140.1499999999999 2984.2300000000005 1136.34 2991.7400000000002 1136.34 2999.78C1136.34 3001.9700000000003 1136.62 3004.1200000000003 1137.1799999999998 3006.2000000000003C1132.7699999999998 3008.0400000000004 1127.85 3009.0000000000005 1122.83 3009.0000000000005ZM1186.68 2991.06L1157.66 2991.06C1156.3000000000002 2991.06 1155.19 2992.23 1155.19 2993.66C1155.19 2995.1 1156.3 2996.27 1157.66 2996.27L1186.68 2996.27C1188.04 2996.27 1189.15 2995.1 1189.15 2993.66C1189.15 2992.23 1188.0400000000002 2991.06 1186.68 2991.06ZM1186.68 3002.85L1157.66 3002.85C1156.3000000000002 3002.85 1155.19 3004.0099999999998 1155.19 3005.45C1155.19 3006.89 1156.3 3008.06 1157.66 3008.06L1186.68 3008.06C1188.04 3008.06 1189.15 3006.89 1189.15 3005.45C1189.15 3004.0099999999998 1188.0400000000002 3002.85 1186.68 3002.85Z " fill="#333333" fill-opacity="1" transform="matrix(1,0,0,1,-1087,-2955)"></path></svg>