<svg id="SvgjsSvg1014" xmlns="http://www.w3.org/2000/svg" version="1.1" xmlns:xlink="http://www.w3.org/1999/xlink" xmlns:svgjs="http://svgjs.com/svgjs" width="79" height="104" viewBox="0 0 79 104"><path id="SvgjsPath1016" d="M595.481 3035.75L593.962 3035.75L593.962 2996.75C593.962 2996.75 593.961 2996.75 593.961 2996.74C594.915 2995.39 595.481 2993.7 595.481 2991.87L595.481 2988.62C595.481 2988.6 595.478 2988.5699999999997 595.477 2988.5499999999997C595.477 2988.5299999999997 595.476 2988.5099999999998 595.475 2988.4999999999995C595.47 2988.4199999999996 595.461 2988.3499999999995 595.447 2988.2799999999997C595.446 2988.2799999999997 595.445 2988.2799999999997 595.444 2988.2699999999995C595.43 2988.2099999999996 595.411 2988.1399999999994 595.39 2988.0699999999997C595.386 2988.0599999999995 595.382 2988.0499999999997 595.377 2988.0399999999995C595.352 2987.9699999999993 595.3249999999999 2987.8999999999996 595.2919999999999 2987.8399999999997C595.2889999999999 2987.8299999999995 595.286 2987.8299999999995 595.2839999999999 2987.8299999999995C595.2529999999999 2987.7699999999995 595.2179999999998 2987.7099999999996 595.1799999999998 2987.6599999999994C595.1719999999998 2987.6399999999994 595.1629999999998 2987.629999999999 595.1549999999999 2987.6199999999994C595.1129999999998 2987.5599999999995 595.0679999999999 2987.5099999999993 595.0199999999999 2987.4599999999996C595.0169999999998 2987.4599999999996 595.0149999999999 2987.4499999999994 595.0129999999999 2987.4499999999994L559.0189999999999 2950.5599999999995L559.0189999999999 2947.9999999999995L569.6539999999999 2947.9999999999995C570.2139999999998 2947.9999999999995 570.7289999999999 2947.6699999999996 570.9929999999999 2947.1399999999994C571.2579999999999 2946.609999999999 571.2289999999999 2945.9699999999993 570.9179999999999 2945.4699999999993L568.4409999999999 2941.4999999999995L570.9179999999999 2937.5299999999997C571.2289999999999 2937.0299999999997 571.2579999999999 2936.39 570.9929999999999 2935.8599999999997C570.7289999999999 2935.3299999999995 570.2139999999999 2934.9999999999995 569.6539999999999 2934.9999999999995L557.4999999999999 2934.9999999999995C556.6609999999998 2934.9999999999995 555.9809999999999 2935.7299999999996 555.9809999999999 2936.6199999999994L555.9809999999999 2950.5599999999995L519.9869999999999 2987.4499999999994C519.9839999999998 2987.4499999999994 519.9819999999999 2987.4599999999996 519.9799999999999 2987.4599999999996C519.9319999999999 2987.5099999999998 519.887 2987.5599999999995 519.8449999999999 2987.6199999999994C519.8359999999999 2987.6299999999997 519.8279999999999 2987.6399999999994 519.8199999999999 2987.6599999999994C519.7819999999999 2987.7099999999996 519.747 2987.7699999999995 519.7159999999999 2987.8299999999995C519.7129999999999 2987.8299999999995 519.7109999999999 2987.8299999999995 519.7079999999999 2987.8399999999997C519.6749999999998 2987.8999999999996 519.6469999999998 2987.97 519.6229999999998 2988.0399999999995C519.6179999999998 2988.0499999999997 519.6139999999998 2988.0599999999995 519.6099999999998 2988.0699999999997C519.5879999999997 2988.14 519.5699999999998 2988.2099999999996 519.5559999999998 2988.2699999999995C519.5549999999998 2988.2799999999997 519.5539999999999 2988.2799999999997 519.5529999999998 2988.2899999999995C519.5389999999998 2988.3499999999995 519.5299999999997 2988.4199999999996 519.5249999999997 2988.4999999999995C519.5239999999998 2988.5099999999998 519.5229999999998 2988.5299999999997 519.5219999999997 2988.5499999999997C519.5219999999997 2988.58 519.5189999999997 2988.6 519.5189999999997 2988.62L519.5189999999997 2991.87C519.5189999999997 2993.7 520.0849999999997 2995.39 521.0389999999996 2996.74C521.0389999999996 2996.75 521.0379999999997 2996.75 521.0379999999997 2996.75L521.0379999999997 3035.75L519.5189999999997 3035.75C518.6799999999996 3035.75 517.9999999999997 3036.48 517.9999999999997 3037.37C517.9999999999997 3038.27 518.6799999999996 3039 519.5189999999997 3039L537.7459999999996 3039C537.7469999999996 3039 537.7489999999997 3039 537.7509999999996 3039C537.7979999999997 3039 537.8459999999997 3039 537.8929999999997 3038.99C537.8969999999997 3038.99 537.9019999999997 3038.99 537.9059999999997 3038.99C537.9289999999997 3038.99 537.9519999999998 3038.9799999999996 537.9749999999997 3038.9799999999996C538.0049999999997 3038.9699999999993 538.0349999999996 3038.9699999999993 538.0649999999997 3038.9599999999996C538.0809999999997 3038.9599999999996 538.0969999999998 3038.9499999999994 538.1129999999997 3038.9499999999994C538.1489999999997 3038.939999999999 538.1859999999997 3038.9299999999994 538.2209999999997 3038.919999999999C538.2249999999997 3038.919999999999 538.2289999999997 3038.919999999999 538.2339999999997 3038.909999999999C538.2469999999997 3038.909999999999 538.2589999999997 3038.8999999999987 538.2719999999997 3038.8999999999987C538.3039999999997 3038.8899999999985 538.3369999999998 3038.8699999999985 538.3679999999997 3038.8599999999988C538.3779999999997 3038.8499999999985 538.3879999999997 3038.8499999999985 538.3979999999997 3038.839999999999C540.7159999999997 3037.6899999999987 542.8879999999997 3036.0799999999986 544.8959999999997 3034.049999999999C545.0379999999998 3034.099999999999 545.1889999999997 3034.119999999999 545.3459999999998 3034.119999999999L569.6539999999998 3034.119999999999C569.8109999999998 3034.119999999999 569.9619999999998 3034.099999999999 570.1039999999998 3034.049999999999C572.1109999999998 3036.079999999999 574.2839999999998 3037.6899999999987 576.6009999999998 3038.839999999999C576.6109999999998 3038.849999999999 576.6209999999998 3038.849999999999 576.6309999999997 3038.8599999999988C576.6629999999998 3038.869999999999 576.6949999999997 3038.889999999999 576.7279999999997 3038.8999999999987C576.7409999999998 3038.8999999999987 576.7529999999997 3038.909999999999 576.7659999999997 3038.909999999999C576.7699999999998 3038.919999999999 576.7739999999998 3038.919999999999 576.7779999999997 3038.919999999999C576.8139999999996 3038.9299999999994 576.8499999999997 3038.939999999999 576.8869999999997 3038.9499999999994C576.9029999999997 3038.9599999999996 576.9189999999998 3038.9599999999996 576.9349999999997 3038.9599999999996C576.9639999999997 3038.97 576.9939999999997 3038.97 577.0239999999998 3038.9799999999996C577.0479999999998 3038.9799999999996 577.0709999999998 3038.99 577.0939999999998 3038.99C577.0979999999998 3038.99 577.1019999999999 3038.99 577.1059999999998 3038.99C577.1539999999998 3039 577.2009999999998 3039 577.2489999999998 3039C577.2499999999998 3039 577.2519999999998 3039 577.2539999999998 3039L595.4809999999998 3039C596.3199999999998 3039 596.9999999999998 3038.27 596.9999999999998 3037.37C596.9999999999998 3036.48 596.3199999999998 3035.75 595.4809999999998 3035.75ZM542.15 3032.34C543.4739999999999 3028.9 544.56 3024.61 545.395 3019.48C546.558 3012.34 546.865 3005.7400000000002 546.865 3003.25C546.865 3002.35 546.1850000000001 3001.62 545.346 3001.62C544.507 3001.62 543.827 3002.35 543.827 3003.25C543.827 3007.82 542.598 3027.54 537.001 3035.75L534.711 3035.75L534.711 3003.25C534.711 3002.35 534.0310000000001 3001.62 533.192 3001.62C532.353 3001.62 531.673 3002.35 531.673 3003.25L531.673 3035.75L524.077 3035.75L524.077 2999.32C525.008 2999.76 526.035 3000 527.115 3000C529.598 3000 531.8050000000001 2998.72 533.192 2996.74C534.579 2998.72 536.787 3000 539.269 3000C541.751 3000 543.9590000000001 2998.72 545.346 2996.74C546.733 2998.72 548.941 3000 551.423 3000C553.041 3000 554.542 2999.45 555.775 2998.53C555.3539999999999 3002.71 554.254 3008.9900000000002 552.177 3015.17C550.303 3020.7400000000002 547.154 3027.63 542.15 3032.34ZM582.601 2987L575.653 2976.32C575.174 2975.5800000000004 574.227 2975.4 573.538 2975.9100000000003C572.85 2976.4200000000005 572.6800000000001 2977.4300000000003 573.159 2978.1700000000005L578.9 2987.0000000000005L570.7339999999999 2987.0000000000005L562.5669999999999 2961.8900000000003L568.9359999999999 2971.6800000000003C569.2309999999999 2972.13 569.704 2972.38 570.184 2972.38C570.4839999999999 2972.38 570.786 2972.28 571.0509999999999 2972.09C571.7399999999999 2971.57 571.91 2970.56 571.43 2969.82L567.443 2963.69L590.181 2987ZM547.556 2963.69L532.398 2987L524.8190000000001 2987ZM547.483 2987L555.981 2960.87L555.981 2982.12C555.981 2983.02 556.661 2983.75 557.5 2983.75C558.339 2983.75 559.019 2983.02 559.019 2982.12L559.019 2960.87L567.517 2987ZM557.5 3007.13C558.106 3010.02 558.914 3013.1400000000003 559.963 3016.27C561.924 3022.1 564.419 3027.0099999999998 567.358 3030.87L547.6419999999999 3030.87C550.5809999999999 3027.0099999999998 553.0759999999999 3022.1 555.0369999999999 3016.27C556.0859999999999 3013.14 556.8939999999999 3010.02 557.4999999999999 3007.13ZM544.266 2987L536.0999999999999 2987L552.4319999999999 2961.89ZM534.711 2990.25L543.827 2990.25L543.827 2991.87C543.827 2994.56 541.782 2996.75 539.269 2996.75C536.756 2996.75 534.711 2994.56 534.711 2991.87ZM546.865 2990.25L555.981 2990.25L555.981 2991.87C555.981 2994.56 553.936 2996.75 551.423 2996.75C548.91 2996.75 546.865 2994.56 546.865 2991.87ZM559.019 2990.25L568.135 2990.25L568.135 2991.87C568.135 2994.56 566.09 2996.75 563.577 2996.75C561.064 2996.75 559.019 2994.56 559.019 2991.87ZM522.557 2991.87L522.557 2990.25L531.673 2990.25L531.673 2991.87C531.673 2994.56 529.628 2996.75 527.115 2996.75C524.602 2996.75 522.557 2994.56 522.557 2991.87ZM571.173 2990.25L580.288 2990.25L580.288 2991.87C580.288 2994.56 578.244 2996.75 575.731 2996.75C573.218 2996.75 571.173 2994.56 571.173 2991.87ZM583.327 2990.25L592.442 2990.25L592.442 2991.87C592.442 2994.56 590.398 2996.75 587.885 2996.75C585.372 2996.75 583.327 2994.56 583.327 2991.87ZM565.351 2942.4L566.815 2944.75L559.019 2944.75L559.019 2938.25L566.815 2938.25L565.351 2940.6C565.011 2941.14 565.011 2941.86 565.351 2942.4ZM562.823 3015.17C560.746 3008.9900000000002 559.646 3002.71 559.225 2998.53C560.458 2999.4500000000003 561.9590000000001 3000 563.577 3000C566.059 3000 568.267 2998.72 569.654 2996.74C571.0409999999999 2998.72 573.249 3000 575.731 3000C578.213 3000 580.421 2998.72 581.808 2996.74C583.1949999999999 2998.72 585.402 3000 587.885 3000C588.965 3000 589.992 2999.76 590.923 2999.32L590.923 3035.75L583.327 3035.75L583.327 3003.25C583.327 3002.35 582.647 3001.62 581.808 3001.62C580.9689999999999 3001.62 580.288 3002.35 580.288 3003.25L580.288 3035.75L577.999 3035.75C572.402 3027.54 571.173 3007.82 571.173 3003.25C571.173 3002.35 570.493 3001.62 569.654 3001.62C568.8149999999999 3001.62 568.135 3002.35 568.135 3003.25C568.135 3005.74 568.442 3012.34 569.605 3019.48C570.44 3024.61 571.5260000000001 3028.9 572.85 3032.34C567.846 3027.63 564.697 3020.7400000000002 562.823 3015.17Z " fill="#333333" fill-opacity="1" transform="matrix(1,0,0,1,-518,-2935)"></path></svg>