<svg id="SvgjsSvg1011" xmlns="http://www.w3.org/2000/svg" version="1.1" xmlns:xlink="http://www.w3.org/1999/xlink" xmlns:svgjs="http://svgjs.com/svgjs" width="101" height="78" viewBox="0 0 101 78"><path id="SvgjsPath1013" d="M1483.48 2972.04L1456.89 2972.04L1454.17 2964.64C1453.3700000000001 2962.46 1451.28 2961 1448.96 2961L1430.04 2961C1427.72 2961 1425.6299999999999 2962.46 1424.83 2964.64L1422.11 2972.04L1413.08 2972.04L1413.08 2969.14C1413.08 2966.7999999999997 1411.1799999999998 2964.9 1408.84 2964.9L1402.58 2964.9C1400.24 2964.9 1398.34 2966.8 1398.34 2969.14L1398.34 2972.04L1395.52 2972.04C1391.93 2972.04 1389 2974.97 1389 2978.56L1389 3032.47C1389 3036.0699999999997 1391.93 3039 1395.52 3039L1483.48 3039C1487.07 3039 1490 3036.07 1490 3032.47L1490 2978.56C1490 2974.97 1487.07 2972.04 1483.48 2972.04ZM1483.48 3034.65L1395.52 3034.65C1394.32 3034.65 1393.35 3033.67 1393.35 3032.4700000000003L1393.35 3026.8900000000003L1401.9599999999998 3026.8900000000003C1403.1599999999999 3026.8900000000003 1404.1299999999999 3025.9200000000005 1404.1299999999999 3024.7100000000005L1404.1299999999999 2986.3200000000006C1404.1299999999999 2985.120000000001 1403.1599999999999 2984.1500000000005 1401.9599999999998 2984.1500000000005L1393.35 2984.1500000000005L1393.35 2978.5600000000004C1393.35 2977.3700000000003 1394.32 2976.3900000000003 1395.52 2976.3900000000003L1455.35 2976.3900000000003C1455.36 2976.3900000000003 1455.36 2976.3900000000003 1455.37 2976.3900000000003L1483.4799999999998 2976.3900000000003C1484.6799999999998 2976.3900000000003 1485.6499999999999 2977.3700000000003 1485.6499999999999 2978.5600000000004L1485.6499999999999 2984.1500000000005L1477.04 2984.1500000000005C1475.84 2984.1500000000005 1474.86 2985.1200000000003 1474.86 2986.3200000000006L1474.86 3024.7100000000005C1474.86 3025.9200000000005 1475.84 3026.8900000000003 1477.04 3026.8900000000003L1485.6499999999999 3026.8900000000003L1485.6499999999999 3032.4700000000003C1485.6499999999999 3033.67 1484.6799999999998 3034.65 1483.4799999999998 3034.65ZM1439.5 2979.56C1425.2 2979.56 1413.56 2991.21 1413.56 3005.52C1413.56 3019.83 1425.2 3031.47 1439.5 3031.47C1453.8 3031.47 1465.44 3019.83 1465.44 3005.52C1465.44 2991.21 1453.8 2979.56 1439.5 2979.56ZM1439.5 3027.34C1427.47 3027.34 1417.69 3017.55 1417.69 3005.52C1417.69 2993.49 1427.47 2983.7 1439.5 2983.7C1451.53 2983.7 1461.31 2993.49 1461.31 3005.52C1461.31 3017.55 1451.53 3027.34 1439.5 3027.34ZM1439.5 2989.33C1430.57 2989.33 1423.31 2996.59 1423.31 3005.52C1423.31 3014.45 1430.57 3021.71 1439.5 3021.71C1448.43 3021.71 1455.69 3014.45 1455.69 3005.52C1455.69 2996.59 1448.43 2989.33 1439.5 2989.33ZM1439.5 3017.8C1432.73 3017.8 1427.23 3012.29 1427.23 3005.52C1427.23 2998.75 1432.73 2993.24 1439.5 2993.24C1446.27 2993.24 1451.77 2998.75 1451.77 3005.52C1451.77 3012.29 1446.27 3017.8 1439.5 3017.8ZM1393.35 2988.5L1399.79 2988.5L1399.79 3022.54L1393.35 3022.54ZM1485.65 3022.54L1479.21 3022.54L1479.21 2988.5L1485.65 2988.5ZM1428.91 2966.14C1429.0800000000002 2965.67 1429.5400000000002 2965.35 1430.0400000000002 2965.35L1448.9600000000003 2965.35C1449.4600000000003 2965.35 1449.9100000000003 2965.67 1450.0900000000004 2966.14L1452.2500000000005 2972.04L1426.7500000000005 2972.04ZM1402.47 2969.14C1402.47 2969.08 1402.52 2969.0299999999997 1402.58 2969.0299999999997L1408.84 2969.0299999999997C1408.8999999999999 2969.0299999999997 1408.9499999999998 2969.08 1408.9499999999998 2969.14L1408.9499999999998 2972.04L1402.4699999999998 2972.04ZM1439.5 2997.52C1435.09 2997.52 1431.5 3001.11 1431.5 3005.52C1431.5 3006.6 1432.38 3007.48 1433.46 3007.48C1434.54 3007.48 1435.41 3006.6 1435.41 3005.52C1435.41 3003.27 1437.25 3001.43 1439.5 3001.43C1440.58 3001.43 1441.46 3000.56 1441.46 2999.48C1441.46 2998.39 1440.58 2997.52 1439.5 2997.52Z " fill="#333333" fill-opacity="1" transform="matrix(1,0,0,1,-1389,-2961)"></path></svg>